# xmcd
#
# Track frame offsets:
#	150
#	18954
#	38583
#	57103
#	79351
#	96737
#	114390
#	135223
#	153306
#	176649
#	196753
#	220340
#	236927
#	253416
#	270528
#	287098
#
# Disc length: 4128 seconds
#
# Revision: 2
# Processed by: cddbd v1.4PL0 Copyright (c) Steve Scherf et al.
# Submitted via: EasyCDDAExtractor 5.0.7
#
DISCID=e3101e10
DTITLE=Various Artist - Ultimate Love Connection 1998
DYEAR=1900
DGENRE=
TTITLE0=That's why you go away
TTITLE1=I'll remember you
TTITLE2=You're the inspiration
TTITLE3=Everytime I close my eyes
TTITLE4=You'll be my future
TTITLE5=Quit playing games
TTITLE6=All cried out
TTITLE7=Because I
TTITLE8=I'll be missing you
TTITLE9=How do i live
TTITLE10=Let's talk about love
TTITLE11=As long as you love me
TTITLE12=You light up my life
TTITLE13=How deep is your love
TTITLE14=You me wanna
TTITLE15=Honey
EXTD=
EXTT0=
EXTT1=
EXTT2=
EXTT3=
EXTT4=
EXTT5=
EXTT6=
EXTT7=
EXTT8=
EXTT9=
EXTT10=
EXTT11=
EXTT12=
EXTT13=
EXTT14=
EXTT15=
PLAYORDER=
